<svg version="1.2" baseProfile="tiny-ps" xmlns="http://www.w3.org/2000/svg" viewBox="0 0 1534 671" width="1534" height="671">
	<title>funpro</title>
	<style>
		tspan { white-space:pre }
		.shp0 { fill: none;stroke: #f3fcff;stroke-width: 50 } 
		.shp1 { fill: #eb2c3d } 
		.shp2 { fill: #212875 } 
		.shp3 { fill: #ffc000 } 
		.shp4 { fill: #009e4b } 
		.shp5 { opacity: 0.18;fill: none;stroke: #333333;stroke-width: 8 } 
	</style>
	<g id="dark">
		<g id="λ">
			<path id="right" class="shp0" d="M51.27 24.19C276.15 105.56 328.24 549.14 328.24 549.14" />
			<path id="left" class="shp0" d="M190.49 181.83C42.03 311.71 26 549.53 26 549.53" />
		</g>
		<path id="text" fill="#ffc000" aria-label="Functional
 Programmers"  d="M402.04 125.92L474.18 125.92L474.18 140.41L419.21 140.41L419.21 204.73L463.56 204.72L463.56 220.38L418.29 220.38L418.29 275.6L402.05 275.6L402.04 125.92ZM548.47 167.48L561.85 167.48L559.72 277.07L547.04 277.07L545.71 240.26Q543.47 247.24 540.81 252.64Q538.26 257.93 535.5 261.94Q532.84 265.86 530.08 268.72Q527.43 271.47 524.87 273.37Q518.94 277.71 512.92 278.66Q504.84 278.66 499.33 274.85Q493.91 271.04 490.54 263.43Q487.27 255.81 485.84 244.49Q484.4 233.18 484.4 218.16Q484.4 206.63 485.12 193.4Q485.83 180.08 487.16 164.63L505.76 166.22Q503.1 184.73 501.88 198.59Q500.75 212.44 500.75 222.7Q500.75 232.54 501.57 239.42Q502.39 246.19 503.62 250.63Q504.84 254.97 506.27 257.4Q507.81 259.83 509.24 260.99Q510.67 262.16 511.79 262.37Q513.02 262.58 513.53 262.58Q517.41 262.58 520.99 259.09Q524.56 255.6 527.73 249.78Q530.9 243.96 533.55 236.35Q536.31 228.73 538.56 220.59Q540.81 212.33 542.54 204.08Q544.38 195.73 545.61 188.53Q546.83 181.34 547.55 175.84Q548.26 170.24 548.47 167.48ZM663.12 275.79L649.12 276.64Q648.31 260.56 647.49 247.76Q646.77 234.86 646.16 225.76Q645.44 215.18 644.73 206.93Q643.91 194.13 641.56 187.68Q639.31 181.12 635.73 181.12Q632.16 181.12 628.48 185.78Q624.8 190.43 621.22 198.16Q617.65 205.88 614.38 215.82Q611.21 225.66 608.45 236.13Q605.8 246.6 603.75 256.86Q601.81 267.12 600.79 275.37L586.79 275.8Q587.41 258.24 587.4 242.48Q587.4 225.98 586.89 212.33Q586.38 198.58 585.77 188.64Q585.05 177 584.23 167.69L603.95 168.54L603.96 211.06Q606.31 204.08 608.15 199.32Q609.98 194.56 611.21 191.6Q612.64 188.11 613.56 186.1Q616.22 180.91 619.38 176.89Q622.55 172.77 625.92 170.02Q629.4 167.16 632.87 165.68Q636.45 164.2 639.72 164.2Q642.99 164.2 645.85 165.68Q648.71 167.16 650.86 170.33Q653.1 173.51 654.64 178.48Q656.27 183.34 657.09 190.22Q658.73 201.64 659.95 215.18Q661.08 226.82 662 242.37Q662.92 257.92 663.12 275.79ZM534.28 431.78Q533.87 440.67 530.91 448.18Q527.95 455.69 523.14 461.82Q518.34 467.96 512.11 472.61Q505.88 477.27 498.93 480.44Q492.08 483.62 484.83 485.2Q477.57 486.79 470.83 486.79Q469.6 486.79 468.38 486.79Q467.15 486.79 465.82 486.58Q465.21 499.17 464.8 511.65Q464.5 524.02 464.19 536.61L448.86 536.61Q449.47 514.61 449.88 492.82Q450.39 470.92 450.39 448.71Q450.39 432.63 450.08 416.87Q449.77 401.01 449.26 384.93Q454.17 382.92 459.58 381.75Q465 380.48 470 379.85Q475.11 379.21 479.41 379.11Q483.7 378.9 486.35 378.9Q496.06 378.9 504.75 381.64Q513.53 384.39 520.07 390.74Q526.61 396.98 530.4 407.14Q534.28 417.18 534.28 431.78ZM471.03 393.81Q469.5 414.12 468.37 434.22Q467.25 454.32 466.23 474.41L466.43 474.41Q477.67 474.41 485.44 471.24Q493.31 468.07 498.42 463.31Q503.63 458.55 506.49 453.04Q509.35 447.44 510.68 442.57Q512.11 437.71 512.41 434.43Q512.72 431.15 512.72 430.94Q512.72 429.77 512.52 426.49Q512.31 423.21 511.39 418.98Q510.47 414.65 508.53 409.99Q506.69 405.34 503.32 401.53Q499.95 397.62 494.84 395.08Q489.73 392.54 482.37 392.54Q477.26 392.54 471.03 393.81ZM600.19 422.26Q606.11 422.26 610.1 424.8Q614.19 427.33 616.64 431.56Q619.19 435.8 620.22 441.4Q621.34 446.9 621.34 452.83Q621.34 458.64 620.73 466.89Q620.12 475.04 618.07 483.5L605.5 481.6Q606.73 474.09 607.14 467.85Q607.55 461.5 607.55 456.85Q607.55 445.53 605.2 440.98Q602.95 436.33 598.15 436.33Q593.96 436.33 589.05 440.35Q584.15 444.37 579.45 452.51Q574.75 460.66 570.86 473.03Q566.98 485.41 564.84 502.12L564.84 539.46L549.41 538.62Q549.31 507.83 548.79 486.04Q548.38 464.15 547.97 450.29Q547.36 434 546.64 423.53L564.83 422.26L564.83 456.85Q566.88 451.14 570.05 445.11Q573.31 438.97 577.71 433.89Q582.2 428.82 587.72 425.54Q593.34 422.26 600.19 422.26ZM717.39 473.13Q717.4 488.36 713.92 500.42Q710.55 512.48 704.62 520.94Q698.8 529.3 690.83 533.85Q682.86 538.29 673.87 538.29Q664.77 538.29 656.8 533.64Q648.83 528.98 642.91 520.42Q636.98 511.85 633.5 499.9Q630.13 487.84 630.13 473.13Q630.13 460.55 633.09 450.18Q636.16 439.71 641.78 432.2Q647.5 424.69 655.57 420.56Q663.75 416.33 673.86 416.33Q685.1 416.33 693.28 420.56Q701.45 424.68 706.76 432.19Q712.18 439.7 714.74 450.18Q717.39 460.54 717.39 473.13ZM701.56 473.34Q701.56 463.82 699.92 455.99Q698.28 448.17 694.81 442.56Q691.44 436.85 686.23 433.78Q681.01 430.71 673.86 430.72Q667.42 430.72 662.21 433.78Q657.1 436.85 653.53 442.56Q649.95 448.17 648.01 456Q646.07 463.83 646.07 473.35Q646.07 484.45 648.22 493.44Q650.47 502.43 654.15 508.89Q657.93 515.34 662.93 518.83Q668.04 522.32 673.87 522.32Q679.59 522.32 684.6 518.93Q689.71 515.55 693.38 509.2Q697.16 502.85 699.31 493.86Q701.56 484.77 701.56 473.34Z" />
		<path id="text" fill="#f3fcff" aria-label="Functional
 Programmers"  d="M763.77 201.43L749.36 205.55Q748.95 199.52 747.42 194.97Q745.89 190.43 743.64 187.04Q741.49 183.66 738.73 181.33Q736.08 179 733.32 177.52Q726.88 174.03 718.81 173.5Q712.78 173.5 708.38 175.51Q703.99 177.52 700.93 181.01Q697.96 184.4 696.12 188.84Q694.28 193.29 693.26 198.15Q692.24 203.02 691.94 207.99Q691.63 212.96 691.63 217.3Q691.63 221.63 692.45 226.71Q693.27 231.79 694.9 236.87Q696.64 241.94 699.09 246.7Q701.54 251.36 704.71 255.06Q707.98 258.66 712.07 260.88Q716.16 262.99 720.96 262.99Q726.89 262.46 732.5 259.5Q734.86 258.23 737.31 256.43Q739.76 254.53 742.11 251.78Q744.46 249.03 746.5 245.43Q748.55 241.73 749.98 236.97L763.36 243.74Q761.83 249.34 759.17 253.79Q756.62 258.23 753.35 261.61Q750.18 264.89 746.5 267.33Q742.93 269.76 739.45 271.45Q731.08 275.37 721.57 276.64Q720.75 276.64 719.94 276.74Q719.22 276.85 718.4 276.85Q711.15 276.85 705.12 274.42Q699.19 271.88 694.39 267.54Q689.69 263.2 686.22 257.28Q682.74 251.36 680.39 244.48Q678.14 237.5 677.02 229.99Q675.89 222.48 675.89 214.87Q675.89 203.55 678.34 193.29Q680.9 183.03 686.11 175.3Q691.32 167.48 699.39 162.93Q707.46 158.38 718.6 158.38Q727.19 158.38 733.83 160.6Q740.47 162.71 745.37 166.31Q750.28 169.91 753.55 174.45Q756.92 179 759.07 183.87Q761.21 188.63 762.34 193.28Q763.46 197.83 763.77 201.43ZM788.29 122.41L803.92 123.47L803.52 158.58L823.85 158.58L823.85 172.02L803.31 172.02L801.89 275.79L789.32 275.79L788.5 172.02L765.5 172.02L765.5 158.59L788.5 158.58L788.29 122.41ZM855.63 133.41Q855.63 136.05 854.61 138.38Q853.69 140.6 852.05 142.29Q850.42 143.88 848.17 144.83Q846.02 145.78 843.57 145.78Q841.12 145.78 838.87 144.83Q836.72 143.88 835.09 142.29Q833.56 140.6 832.53 138.38Q831.61 136.05 831.61 133.41Q831.61 130.87 832.53 128.65Q833.56 126.32 835.09 124.73Q836.72 123.04 838.87 122.09Q841.12 121.14 843.57 121.14Q846.02 121.14 848.17 122.09Q850.42 123.04 852.05 124.73Q853.69 126.32 854.61 128.65Q855.63 130.87 855.63 133.41ZM834.58 166.62L851.75 167.89L850.02 273.56L836.02 273.56L834.58 166.62ZM957.81 213.16Q957.82 228.39 954.34 240.45Q950.97 252.5 945.04 260.97Q939.22 269.32 931.25 273.87Q923.28 278.32 914.29 278.32Q905.19 278.32 897.22 273.66Q889.25 269.01 883.33 260.44Q877.4 251.87 873.92 239.92Q870.55 227.86 870.55 213.16Q870.55 200.57 873.51 190.21Q876.58 179.73 882.2 172.22Q887.92 164.71 895.99 160.59Q904.17 156.36 914.28 156.36Q925.52 156.35 933.7 160.59Q941.87 164.71 947.19 172.22Q952.6 179.73 955.16 190.2Q957.81 200.57 957.81 213.16ZM941.98 213.37Q941.98 203.85 940.34 196.02Q938.71 188.19 935.23 182.59Q931.86 176.88 926.65 173.81Q921.44 170.74 914.28 170.74Q907.85 170.74 902.63 173.81Q897.53 176.88 893.95 182.59Q890.37 188.2 888.43 196.02Q886.49 203.85 886.49 213.37Q886.49 224.48 888.64 233.47Q890.89 242.46 894.57 248.91Q898.35 255.36 903.35 258.85Q908.46 262.34 914.29 262.34Q920.01 262.34 925.02 258.96Q930.13 255.57 933.8 249.23Q937.58 242.88 939.73 233.89Q941.98 224.79 941.98 213.37ZM1051.21 275.77L1037.21 276.62Q1036.4 260.54 1035.58 247.74Q1034.86 234.83 1034.25 225.74Q1033.53 215.16 1032.82 206.91Q1032 194.11 1029.65 187.66Q1027.4 181.1 1023.82 181.1Q1020.25 181.1 1016.57 185.76Q1012.89 190.41 1009.31 198.13Q1005.74 205.85 1002.47 215.8Q999.3 225.63 996.54 236.11Q993.89 246.58 991.84 256.84Q989.9 267.1 988.88 275.35L974.88 275.77Q975.5 258.22 975.49 242.45Q975.49 225.95 974.98 212.31Q974.47 198.56 973.86 188.61Q973.14 176.98 972.32 167.67L992.04 168.52L992.05 211.04Q994.4 204.06 996.23 199.3Q998.07 194.54 999.3 191.57Q1000.73 188.08 1001.65 186.07Q1004.31 180.89 1007.47 176.87Q1010.64 172.74 1014.01 169.99Q1017.49 167.14 1020.96 165.66Q1024.54 164.18 1027.81 164.18Q1031.08 164.18 1033.94 165.66Q1036.8 167.14 1038.95 170.31Q1041.19 173.48 1042.73 178.45Q1044.36 183.32 1045.18 190.2Q1046.82 201.62 1048.04 215.16Q1049.17 226.79 1050.09 242.34Q1051.01 257.89 1051.21 275.77ZM1149 216.85Q1148.8 227.53 1148.39 238.11Q1148.18 242.66 1147.98 247.63Q1147.77 252.6 1147.47 257.68Q1147.26 262.65 1146.86 267.51Q1146.55 272.38 1146.24 276.61L1132.24 276.19Q1132.45 273.12 1132.55 270.16Q1132.65 267.2 1132.65 264.23Q1128.05 269.31 1122.95 272.17Q1117.84 275.03 1113.24 276.51Q1107.92 278.3 1102.71 278.83Q1101.59 279.05 1100.57 279.05Q1099.65 279.05 1098.52 279.05Q1091.37 279.05 1084.83 277.04Q1078.29 274.92 1073.18 270.69Q1068.18 266.46 1065.11 260.11Q1062.15 253.66 1062.15 244.99Q1062.14 237.37 1065.01 230.71Q1067.97 223.94 1073.18 218.97Q1078.49 213.89 1085.95 210.93Q1093.41 207.96 1102.51 207.75Q1102.81 207.75 1105.98 207.96Q1109.15 208.17 1113.64 209.34Q1118.24 210.4 1123.45 212.83Q1128.77 215.15 1133.26 219.39Q1133.26 214.63 1133.06 209.34Q1132.85 204.05 1132.04 198.97Q1131.32 193.79 1129.68 189.13Q1128.05 184.48 1125.19 180.99Q1122.43 177.39 1118.14 175.38Q1113.85 173.27 1107.71 173.27Q1102.91 173.27 1098.93 175.17Q1094.94 177.08 1091.88 180.36Q1088.81 183.64 1086.77 188.18Q1084.72 192.63 1083.7 197.81L1066.54 192.1Q1067.76 186.07 1070.01 181.42Q1072.36 176.76 1075.22 173.27Q1078.18 169.78 1081.45 167.35Q1084.83 164.81 1088.09 163.11Q1095.76 159.2 1104.65 158.35Q1116.91 158.35 1125.39 162.16Q1133.87 165.97 1139.08 173.37Q1144.4 180.78 1146.65 191.67Q1149 202.57 1149 216.85ZM1133.06 246.25Q1133.06 244.14 1133.16 242.13Q1133.26 240.01 1133.26 238.11Q1127.85 232.4 1122.53 229.43Q1117.32 226.47 1113.03 224.99Q1108.13 223.3 1103.53 223.09Q1097.19 223.09 1092.59 224.99Q1088.1 226.79 1085.14 229.86Q1082.27 232.93 1080.84 236.84Q1079.52 240.76 1079.52 244.99Q1079.52 249.32 1081.05 252.81Q1082.58 256.3 1085.34 258.74Q1088.2 261.17 1092.19 262.55Q1096.28 263.81 1101.28 263.81Q1106.19 263.39 1111.5 261.49Q1116.1 259.79 1121.62 256.3Q1127.24 252.71 1133.06 246.25ZM1169.53 125.66L1185.78 126.93L1183.74 275.55L1171.58 275.55L1169.53 125.66ZM815.38 405.11L802.41 428.91Q806.9 433.67 809.77 439.59Q812.63 445.41 814.26 451.65Q815.9 457.89 816.51 464.13Q817.12 470.37 817.12 475.77Q817.02 487.09 814.98 496.18Q813.04 505.17 809.77 512.26Q806.5 519.24 802.21 524.32Q797.92 529.4 793.12 532.68Q788.41 535.96 783.41 537.54Q778.5 539.02 774.01 539.03Q770.23 539.03 766.75 538.39Q763.38 537.76 760.42 536.8Q757.76 538.81 755.61 541.14Q753.57 543.47 752.04 545.9Q750.51 548.23 749.69 550.56Q748.87 552.88 748.87 555Q748.87 558.6 750.81 560.5Q752.86 562.4 754.7 562.4Q757.35 562.4 760.11 560.92Q762.87 559.33 765.83 557.01Q768.9 554.68 772.17 552.04Q775.54 549.29 779.12 546.96Q782.8 544.63 786.88 543.15Q790.97 541.56 795.57 541.56Q799.66 541.56 803.44 542.73Q807.22 543.89 810.38 546.22Q813.65 548.44 816.01 551.82Q818.36 555.21 819.58 559.75Q820.09 561.55 820.2 563.25Q820.4 564.94 820.4 566.74Q820.4 575.62 816.42 582.5Q812.53 589.37 805.89 594.13Q799.25 598.79 790.36 601.22Q781.57 603.55 771.66 603.55Q767.88 603.55 764 603.13Q760.22 602.6 756.44 601.54L758.27 592.02Q760.32 592.55 762.26 592.76Q764.3 592.97 766.24 592.97Q771.15 592.97 775.34 592.13Q779.53 591.17 782.59 590.01Q786.17 588.74 789.24 587.05Q797.51 582.29 800.99 577.84Q804.56 573.4 804.56 569.06Q804.56 566.84 803.74 564.94Q803.03 562.93 801.7 561.45Q800.37 559.86 798.53 559.02Q796.69 558.06 794.44 558.06Q790.87 558.06 786.17 560.5Q781.47 562.82 775.64 568.22Q770.74 572.66 765.43 574.78Q760.11 576.89 754.7 576.89Q751.12 576.89 747.44 575.84Q743.87 574.67 740.9 572.56Q738.04 570.44 736.1 567.27Q734.26 563.99 734.26 559.76Q734.26 556.48 735.28 552.88Q736.3 549.18 738.35 545.59Q740.39 541.88 743.35 538.39Q746.42 534.9 750.3 531.83Q744.17 527.29 740.08 520.73Q735.99 514.06 733.44 506.45Q730.88 498.83 729.76 490.79Q728.74 482.65 728.74 475.03Q728.74 460.01 732.01 449.12Q735.38 438.22 741.1 431.13Q746.92 424.05 754.69 420.66Q762.56 417.28 771.65 417.28Q777.17 417.27 781.87 418.23Q786.57 419.07 790.55 420.66L800.57 394.32L815.38 405.11ZM802.41 475.56Q802.41 472.28 802.1 468.15Q801.9 464.03 800.98 459.69Q800.16 455.35 798.53 451.12Q796.99 446.79 794.44 443.19L785.24 460.11L777.27 455.57L785.04 435.04Q782.38 433.88 779.21 433.14Q776.04 432.4 772.26 432.4Q757.35 433.04 750.4 443.93Q743.45 454.83 743.45 474.82Q743.45 488.57 745.9 497.99Q748.46 507.4 752.45 513.22Q756.43 518.93 761.34 521.47Q766.34 524.01 771.25 524Q776.46 524 781.87 521.36Q787.39 518.61 791.89 512.79Q796.49 506.87 799.35 497.77Q802.31 488.57 802.41 475.56ZM885.89 422.24Q891.82 422.24 895.8 424.78Q899.89 427.32 902.34 431.55Q904.9 435.78 905.92 441.38Q907.04 446.88 907.04 452.81Q907.04 458.63 906.43 466.88Q905.82 475.02 903.78 483.48L891.21 481.58Q892.43 474.07 892.84 467.83Q893.25 461.48 893.25 456.83Q893.25 445.51 890.9 440.96Q888.65 436.31 883.85 436.31Q879.66 436.31 874.75 440.33Q869.85 444.35 865.15 452.49Q860.45 460.64 856.57 473.01Q852.68 485.39 850.54 502.1L850.54 539.44L835.11 538.6Q835.01 507.82 834.5 486.03Q834.09 464.13 833.68 450.27Q833.06 433.98 832.35 423.51L850.54 422.24L850.54 456.83Q852.58 451.12 855.75 445.09Q859.02 438.95 863.41 433.88Q867.91 428.8 873.42 425.52Q879.04 422.24 885.89 422.24ZM1000.85 476.81Q1000.65 487.5 1000.24 498.08Q1000.03 502.62 999.83 507.6Q999.62 512.57 999.32 517.64Q999.11 522.62 998.71 527.48Q998.4 532.35 998.09 536.58L984.09 536.16Q984.3 533.09 984.4 530.13Q984.5 527.16 984.5 524.2Q979.9 529.28 974.8 532.14Q969.69 534.99 965.09 536.47Q959.78 538.27 954.56 538.8Q953.44 539.01 952.42 539.01Q951.5 539.01 950.37 539.01Q943.22 539.01 936.68 537.01Q930.14 534.89 925.03 530.66Q920.03 526.43 916.96 520.08Q914 513.63 914 504.96Q914 497.34 916.86 490.68Q919.82 483.91 925.03 478.93Q930.34 473.86 937.8 470.89Q945.26 467.93 954.36 467.72Q954.66 467.72 957.83 467.93Q961 468.14 965.49 469.31Q970.09 470.36 975.3 472.8Q980.62 475.12 985.11 479.35Q985.11 474.59 984.91 469.3Q984.7 464.02 983.89 458.94Q983.17 453.76 981.53 449.1Q979.9 444.45 977.04 440.96Q974.28 437.36 969.99 435.35Q965.7 433.24 959.56 433.24Q954.76 433.24 950.78 435.14Q946.79 437.04 943.73 440.32Q940.66 443.6 938.62 448.15Q936.57 452.59 935.55 457.78L918.39 452.07Q919.61 446.04 921.86 441.38Q924.21 436.73 927.07 433.24Q930.03 429.75 933.3 427.31Q936.68 424.78 939.95 423.08Q947.61 419.17 956.5 418.32Q968.76 418.32 977.24 422.13Q985.72 425.94 990.93 433.34Q996.25 440.74 998.5 451.64Q1000.85 462.53 1000.85 476.81ZM984.91 506.22Q984.91 504.11 985.01 502.1Q985.11 499.98 985.11 498.08Q979.7 492.36 974.38 489.4Q969.17 486.44 964.88 484.96Q959.98 483.27 955.38 483.06Q949.04 483.06 944.44 484.96Q939.95 486.76 936.99 489.83Q934.12 492.9 932.69 496.81Q931.37 500.72 931.37 504.95Q931.37 509.29 932.9 512.78Q934.43 516.27 937.19 518.71Q940.05 521.14 944.04 522.51Q948.13 523.78 953.13 523.78Q958.04 523.36 963.35 521.45Q967.95 519.76 973.47 516.27Q979.09 512.67 984.91 506.22ZM1123.27 533.71L1107.53 533.08Q1108.76 524.51 1109.57 516.47Q1110.39 508.43 1110.8 501.35Q1111.21 494.26 1111.31 488.44Q1111.51 482.52 1111.51 478.29Q1111.51 462.63 1109.26 454.59Q1107.02 446.45 1102.11 446.45Q1098.33 446.45 1093.53 452.8Q1088.83 459.04 1084.13 472.26Q1084.33 475.33 1084.43 478.82Q1084.54 482.2 1084.54 486.12Q1084.54 496.27 1083.82 508.22Q1083.11 520.18 1081.17 533.72L1066.15 534.67Q1067.58 519.76 1067.98 507.91Q1068.39 496.06 1068.39 487.39Q1068.39 475.12 1067.78 466.87Q1067.16 458.62 1066.14 453.64Q1065.22 448.57 1064 446.45Q1062.77 444.34 1061.54 444.34Q1059.3 444.34 1056.23 449.2Q1053.27 454.07 1048.98 463.59Q1044.69 473.21 1042.44 482.1Q1040.19 490.99 1038.86 499.55Q1037.64 508.12 1036.92 516.48Q1036.21 524.83 1035.19 533.3L1021.19 533.72Q1021.39 526.1 1021.39 518.7Q1021.39 511.3 1021.39 504.31Q1021.39 487.5 1021.08 473.53Q1020.77 459.57 1020.47 449.31Q1020.06 437.36 1019.65 427.84L1038.25 428.68L1038.25 462.74Q1039.06 459.78 1040.39 455.97Q1041.72 452.06 1043.46 448.04Q1045.19 443.91 1047.44 440Q1049.79 435.98 1052.55 432.91Q1055.31 429.74 1058.58 427.84Q1061.85 425.93 1065.73 425.93Q1071.15 425.93 1075.64 431.85Q1080.24 437.67 1082.29 449.73Q1086.07 442.32 1089.95 438.2Q1093.83 434.07 1097 432.17Q1100.27 430.16 1102.42 429.74Q1104.56 429.31 1105.07 429.31Q1109.26 429.31 1113.15 431.32Q1117.03 433.33 1119.99 439.04Q1123.06 444.65 1124.8 454.7Q1126.64 464.75 1126.64 480.72Q1126.64 491.19 1125.82 504.31Q1125 517.32 1123.27 533.71ZM1249.26 533.71L1233.52 533.07Q1234.75 524.5 1235.56 516.47Q1236.38 508.43 1236.79 501.34Q1237.2 494.25 1237.3 488.43Q1237.5 482.51 1237.5 478.28Q1237.5 462.62 1235.25 454.59Q1233.01 446.44 1228.1 446.44Q1224.32 446.44 1219.52 452.79Q1214.82 459.03 1210.12 472.25Q1210.32 475.32 1210.43 478.81Q1210.53 482.2 1210.53 486.11Q1210.53 496.26 1209.81 508.22Q1209.1 520.17 1207.16 533.71L1192.14 534.66Q1193.57 519.75 1193.98 507.9Q1194.38 496.05 1194.38 487.38Q1194.38 475.11 1193.77 466.86Q1193.16 458.61 1192.13 453.64Q1191.21 448.56 1189.99 446.44Q1188.76 444.33 1187.53 444.33Q1185.29 444.33 1182.22 449.19Q1179.26 454.06 1174.97 463.58Q1170.68 473.21 1168.43 482.09Q1166.18 490.98 1164.85 499.55Q1163.63 508.11 1162.91 516.47Q1162.2 524.83 1161.18 533.29L1147.18 533.71Q1147.38 526.1 1147.38 518.69Q1147.38 511.29 1147.38 504.31Q1147.38 487.49 1147.07 473.53Q1146.76 459.56 1146.46 449.3Q1146.05 437.35 1145.64 427.83L1164.24 428.67L1164.24 462.74Q1165.06 459.77 1166.38 455.97Q1167.71 452.05 1169.45 448.03Q1171.19 443.91 1173.43 439.99Q1175.78 435.97 1178.54 432.9Q1181.3 429.73 1184.57 427.83Q1187.84 425.92 1191.72 425.92Q1197.14 425.92 1201.64 431.85Q1206.23 437.66 1208.28 449.72Q1212.06 442.32 1215.94 438.19Q1219.82 434.07 1222.99 432.16Q1226.26 430.15 1228.41 429.73Q1230.55 429.31 1231.06 429.31Q1235.25 429.31 1239.14 431.31Q1243.02 433.32 1245.98 439.04Q1249.05 444.64 1250.79 454.69Q1252.63 464.74 1252.63 480.71Q1252.63 491.18 1251.81 504.3Q1250.99 517.31 1249.26 533.71ZM1357.47 473.94L1283.18 473.94Q1282.98 475.1 1283.08 476.27Q1283.18 477.33 1283.18 478.49Q1283.18 489.07 1285.22 496.36Q1287.27 503.56 1290.33 508.32Q1293.5 513.08 1297.18 515.62Q1300.96 518.15 1304.23 519.42Q1307.5 520.59 1309.85 520.8Q1312.2 521.01 1312.71 521.01Q1312.61 521.01 1314.14 520.9Q1315.68 520.69 1318.13 520.06Q1320.68 519.32 1323.85 517.84Q1327.02 516.35 1330.08 513.71Q1333.25 510.96 1336.01 506.94Q1338.77 502.81 1340.51 496.89L1353.07 500.59Q1351.54 507.15 1348.99 512.23Q1346.43 517.31 1343.27 521.11Q1340.2 524.92 1336.62 527.67Q1333.15 530.32 1329.78 532.01Q1321.81 536.24 1312.71 536.98Q1303.72 536.98 1296.77 534.23Q1289.93 531.38 1284.92 526.62Q1279.91 521.86 1276.54 515.72Q1273.17 509.59 1271.12 502.92Q1269.18 496.15 1268.26 489.49Q1267.44 482.72 1267.44 476.8Q1267.44 471.3 1268.06 464.74Q1268.67 458.18 1270.41 451.52Q1272.14 444.85 1275.31 438.61Q1278.48 432.37 1283.59 427.5Q1288.69 422.64 1295.95 419.78Q1303.31 416.82 1313.32 416.82Q1315.06 416.82 1318.94 417.24Q1322.93 417.56 1327.83 419.36Q1332.74 421.05 1337.95 424.64Q1343.16 428.13 1347.45 434.48Q1351.84 440.83 1354.6 450.45Q1357.47 460.08 1357.47 473.94ZM1312.71 433Q1305.66 433.53 1299.73 436.49Q1297.18 437.76 1294.62 439.77Q1292.17 441.68 1290.02 444.53Q1287.88 447.28 1286.24 451.09Q1284.61 454.9 1284 459.87L1340.09 459.87Q1339.48 453.63 1336.82 448.66Q1334.17 443.68 1330.28 440.19Q1326.5 436.7 1321.8 434.91Q1317.2 433 1312.71 433ZM1423.78 422.21Q1429.71 422.21 1433.69 424.74Q1437.78 427.28 1440.23 431.51Q1442.79 435.74 1443.81 441.35Q1444.93 446.85 1444.93 452.77Q1444.93 458.59 1444.32 466.84Q1443.71 474.99 1441.67 483.45L1429.1 481.55Q1430.32 474.04 1430.73 467.8Q1431.14 461.45 1431.14 456.79Q1431.14 445.48 1428.79 440.93Q1426.54 436.27 1421.74 436.27Q1417.55 436.27 1412.64 440.29Q1407.74 444.31 1403.04 452.46Q1398.34 460.61 1394.46 472.98Q1390.57 485.36 1388.43 502.07L1388.43 539.41L1373 538.56Q1372.9 507.78 1372.39 485.99Q1371.98 464.1 1371.57 450.24Q1370.95 433.95 1370.24 423.48L1388.42 422.21L1388.43 456.8Q1390.47 451.09 1393.64 445.06Q1396.91 438.92 1401.3 433.84Q1405.8 428.77 1411.31 425.49Q1416.93 422.21 1423.78 422.21ZM1533.22 460.28L1514.83 459.65Q1515.03 458.69 1515.03 457.74Q1515.03 456.68 1515.03 455.52Q1515.03 450.13 1513.5 445.47Q1512.07 440.71 1509.31 437.22Q1506.65 433.63 1502.77 431.62Q1498.88 429.5 1494.18 429.5Q1488.77 429.5 1484.37 430.98Q1479.98 432.36 1476.81 435.11Q1473.75 437.86 1472.01 441.98Q1470.27 446 1470.27 451.4Q1470.27 454.47 1471.71 457.74Q1473.24 460.92 1476.2 463.77Q1479.17 466.63 1483.46 468.85Q1487.85 471.07 1493.68 472.02Q1504.61 473.93 1511.46 477.63Q1518.4 481.22 1522.29 485.77Q1526.27 490.32 1527.7 495.19Q1529.13 500.05 1529.13 504.28Q1529.14 506.93 1528.52 510.31Q1528.01 513.7 1526.48 517.29Q1524.95 520.89 1522.19 524.38Q1519.53 527.77 1515.24 530.52Q1510.95 533.16 1504.92 534.85Q1498.99 536.55 1490.82 536.55Q1490 536.55 1487.14 536.34Q1484.38 536.12 1480.5 534.96Q1476.72 533.8 1472.32 531.47Q1468.03 529.14 1464.15 524.91Q1460.26 520.68 1457.3 514.23Q1454.44 507.78 1453.52 498.47L1470.28 497.52Q1470.99 503.65 1472.83 507.78Q1474.77 511.9 1477.23 514.65Q1479.78 517.3 1482.44 518.78Q1485.2 520.26 1487.55 521Q1490 521.63 1491.63 521.74Q1493.37 521.84 1493.68 521.84Q1497.97 521.74 1501.44 520.36Q1505.02 518.88 1507.47 516.66Q1509.93 514.44 1511.25 511.58Q1512.58 508.62 1512.58 505.55Q1512.58 502.91 1511.66 500.37Q1510.74 497.83 1508.19 495.61Q1505.73 493.28 1501.34 491.38Q1497.05 489.48 1490.2 488Q1479.17 485.78 1472.01 481.44Q1464.96 477 1460.77 471.81Q1456.58 466.52 1454.95 461.13Q1453.31 455.74 1453.31 451.4Q1453.31 444.95 1455.46 438.28Q1457.6 431.51 1462.41 426.01Q1467.31 420.41 1475.18 416.91Q1483.05 413.32 1494.59 413.32Q1505.53 414.06 1514.11 418.5Q1517.79 420.4 1521.26 423.36Q1524.84 426.22 1527.6 430.45Q1530.36 434.68 1531.99 440.39Q1533.73 446 1533.73 453.4Q1533.73 454.99 1533.53 456.79Q1533.42 458.48 1533.22 460.28Z" />
		<path id="text" fill="#ffffff" aria-label="Functional
 Programmers"  d="" />
	</g>
	<g id="flag">
		<path id="red" class="shp1" d="M194.33 337.58C194.33 337.58 217.92 325.39 243.99 327.23C270.05 329.08 320.5 338.1 340.56 337.59C359.79 337.09 384 327.01 384 327.01L384.04 357.9C384.04 357.9 364.6 368.15 339.94 368.67C313.96 369.23 261.93 358.08 238.48 358.11C215.02 358.14 194.5 368.86 194.5 368.86L194.33 337.58Z" />
		<path id="blue" class="shp2" d="M194.37 368.5C194.37 368.5 217.96 356.31 244.02 358.15C270.09 360 320.54 369.03 340.6 368.51C359.83 368.01 384.04 357.93 384.04 357.93L384.08 388.82C384.08 388.82 364.64 399.07 339.98 399.59C314 400.15 261.97 389 238.51 389.03C215.06 389.06 194.54 399.78 194.54 399.78L194.37 368.5Z" />
		<path id="yellow" class="shp3" d="M194.41 399.58C194.41 399.58 218 387.4 244.06 389.24C270.12 391.09 320.58 400.11 340.64 399.59C359.87 399.1 384.08 389.01 384.08 389.01L384.12 419.91C384.12 419.91 364.68 430.16 340.02 430.68C314.04 431.23 262.01 420.09 238.55 420.12C215.1 420.15 194.58 430.86 194.58 430.86L194.41 399.58Z" />
		<path id="green" class="shp4" d="M194.45 430.42C194.45 430.42 218.04 418.24 244.1 420.08C270.16 421.93 314.35 430.41 341.47 430.37C363.53 430.34 384.12 419.85 384.12 419.85L384.16 450.75C384.16 450.75 365.44 462.76 341.78 462.79C318.13 462.82 271.15 452.31 238.59 452.36C215.14 452.39 194.49 462.98 194.49 462.98L194.45 430.42Z" />
		<path id="stroke" class="shp5" d="M197.91 339.75C197.91 339.75 217.34 330.67 239.07 330.64C260.11 330.62 313.66 341.25 336.64 341.12C360.68 340.99 380.42 332.34 380.42 332.34L380.41 448.62C380.41 448.62 361.34 460.07 337.05 459.09C319.16 458.37 265.27 448.57 239.37 448.61C218.81 448.63 198.31 457.6 198.31 457.6L197.91 339.75Z" />
	</g>
</svg>
